<?xml version="1.0" encoding="iso-8859-1"?>
<!-- Generator: Adobe Illustrator 19.0.0, SVG Export Plug-In . SVG Version: 6.00 Build 0)  -->
<svg version="1.1" id="Capa_1" xmlns="http://www.w3.org/2000/svg" xmlns:xlink="http://www.w3.org/1999/xlink" x="0px" y="0px"
	 viewBox="0 0 512 512" style="enable-background:new 0 0 512 512;" xml:space="preserve">
<g>
	<g>
		<path d="M505.341,197.752c-1.647-7.084-8.104-12.005-15.35-11.712c-18.19,0.697-38.936-13.511-51.558-35.369
			c-12.612-21.828-14.562-46.869-4.871-62.29c3.86-6.144,2.819-14.158-2.466-19.119c-28.629-26.85-63.512-47.02-100.892-58.328
			c-6.953-2.102-14.42,1.021-17.796,7.448C303.91,34.51,281.243,45.343,256,45.343c-25.243,0-47.91-10.833-56.408-26.961
			c-3.375-6.427-10.843-9.55-17.796-7.448c-37.38,11.308-72.264,31.478-100.892,58.328c-5.285,4.962-6.326,12.975-2.466,19.119
			c9.691,15.421,7.741,40.462-4.871,62.29c-12.622,21.858-33.358,36.056-51.558,35.369c-7.306-0.293-13.703,4.628-15.35,11.712
			C2.243,216.751,0,236.345,0,256c0,19.655,2.243,39.249,6.659,58.248c1.647,7.084,8.084,12.005,15.35,11.712
			c18.23-0.697,38.936,13.511,51.558,35.369c12.612,21.828,14.562,46.869,4.871,62.29c-3.86,6.144-2.819,14.158,2.466,19.119
			c28.629,26.85,63.512,47.02,100.892,58.328c6.953,2.102,14.41-1.021,17.796-7.448c8.499-16.128,31.165-26.961,56.408-26.961
			s47.91,10.833,56.408,26.961c2.668,5.083,7.902,8.094,13.41,8.094c1.455,0,2.931-0.212,4.386-0.647
			c37.38-11.308,72.264-31.478,100.892-58.328c5.285-4.962,6.326-12.975,2.466-19.119c-9.691-15.421-7.741-40.462,4.871-62.29
			c12.622-21.858,33.358-36.086,51.558-35.369c7.286,0.293,13.703-4.628,15.35-11.712C509.757,295.249,512,275.655,512,256
			C512,236.345,509.757,216.751,505.341,197.752z M121.164,281.86c-0.01,0-0.02,0-0.04,0c-14.127,0-25.627-11.49-25.648-25.617
			c-0.02-14.148,11.47-25.668,25.607-25.688c0.02,0,0.03,0,0.04,0c14.127,0,25.637,11.48,25.658,25.607
			C146.801,270.309,135.311,281.839,121.164,281.86z M175.521,117.101c4.042-2.334,8.458-3.446,12.824-3.446
			c8.852,0,17.482,4.578,22.242,12.783h-0.01c7.094,12.238,2.91,27.962-9.327,35.056c-5.932,3.436-12.844,4.355-19.463,2.587
			c-6.619-1.758-12.157-5.992-15.593-11.924C159.099,139.919,163.283,124.195,175.521,117.101z M210.97,385.703
			c-3.416,5.932-8.933,10.186-15.552,11.975c-6.619,1.779-13.531,0.879-19.473-2.536c-5.932-3.416-10.186-8.943-11.975-15.552
			c-1.779-6.619-0.879-13.531,2.536-19.473c2.365-4.113,5.72-7.326,9.58-9.519c3.87-2.183,8.246-3.335,12.692-3.335
			c4.345,0,8.731,1.102,12.753,3.406c5.942,3.426,10.196,8.943,11.975,15.562C215.295,372.849,214.396,379.761,210.97,385.703z
			 M256,281.648c-14.148,0-25.648-11.5-25.648-25.648c0-14.148,11.5-25.647,25.648-25.647c14.148,0,25.648,11.5,25.648,25.647
			C281.648,270.148,270.148,281.648,256,281.648z M301.03,126.297c3.416-5.932,8.933-10.186,15.552-11.975
			c2.223-0.596,4.477-0.889,6.72-0.889c4.426,0,8.802,1.152,12.753,3.426c5.932,3.416,10.186,8.943,11.975,15.552
			c1.779,6.619,0.879,13.531-2.536,19.473c-4.739,8.236-13.4,12.854-22.282,12.854c-4.335,0-8.721-1.101-12.743-3.406
			c-5.942-3.426-10.196-8.943-11.975-15.562C296.705,139.151,297.604,132.239,301.03,126.297z M336.479,394.899
			c-12.238,7.094-27.972,2.9-35.066-9.337h0.01c-7.094-12.238-2.91-27.962,9.327-35.056c5.932-3.436,12.844-4.355,19.463-2.587
			c6.619,1.758,12.157,5.992,15.593,11.924C352.901,372.081,348.717,387.805,336.479,394.899z M390.917,281.445
			c-0.02,0-0.03,0-0.04,0c-14.127,0-25.637-11.48-25.658-25.607c-0.02-14.148,11.47-25.678,25.617-25.698c0.01,0,0.02,0,0.04,0
			c14.127,0,25.627,11.49,25.648,25.617C416.544,269.905,405.055,281.425,390.917,281.445z"/>
	</g>
</g>
<g>
</g>
<g>
</g>
<g>
</g>
<g>
</g>
<g>
</g>
<g>
</g>
<g>
</g>
<g>
</g>
<g>
</g>
<g>
</g>
<g>
</g>
<g>
</g>
<g>
</g>
<g>
</g>
<g>
</g>
</svg>
