<svg height="512" viewBox="0 0 48 54" width="512" xmlns="http://www.w3.org/2000/svg"><path id="Shape" d="m22.634 25.563 21.1-21.2c.154663 5.23458926-1.8530796 10.3018698-5.551 14.01l-11.308 11.427zm-2.119.709 8.485 8.485-2.393 2.362-10.09-6.9zm-8.623 8.507 4.956 9.461-9.048-5.427zm-3.114 19.928c-.39514456.3780366-1.01785544.3780366-1.413 0l-7.072-7.071c-.38844846-.3885455-.39068111-1.0177074-.005-1.409l2.14-2.112 8.486 8.485zm3.559-3.507-8.485-8.489 2.48-2.447 10.625 6.374zm6.863-6.776-5.82-11.113 1.687-1.665 10.089 6.9zm10.5-11.791-1.414-1.415 11.319-11.439c4.1613337-4.1674678 6.3858128-9.88807518 6.133-15.772l-.072-1.586 1.286-1.291c.1400202-.14074771.350049-.18531935.5351645-.11357087.1851154.07174849.3102445.24622329.3188355.44457087l.176 4.056c.2256484 5.3215059-1.7870843 10.4944102-5.55 14.264z" transform="translate(0 -1)"/></svg>